<svg width="1846.05" height="916.23" xmlns="http://www.w3.org/2000/svg" data-name="Layer 2">

 <title>esociety-logo-v02</title>
 <g>
  <title>Layer 1</title>
  <path id="svg_1" fill="#c14c1e" d="m506.83,637.5l-63.74,127.5c-20,40 -99.6,163.33 -284,71.12c-68.46,-34.24 -106,-81.83 -111.54,-141.44c-4.22,-45.63 12.28,-82.24 12.45,-82.52l0.5,-1l0.43,-1.32c0.18,-0.51 18.09,-51.3 62.19,-62l-4.78,-19.73l-0.25,0.13s-59.59,-9.58 -94.48,56.64c-0.58,1.07 -1.13,2 -1.66,2.93l0,0l-3.4,6.8c-3.68,8.48 -20.21,50 -15.93,101.94c4.36,53 31.57,127.3 136.41,179.73c46,23 90.18,35.75 131.35,37.89c36.49,1.9 70.88,-4.46 102.22,-18.9c65.27,-30.07 99.21,-87.1 110.78,-110.22l63.74,-127.45l-40.29,-20.1z" class="cls-1"/>
  <path id="svg_2" fill="#c14c1e" d="m720.7,295.33l-62.93,128.79l-33.66,-17.84l62.27,-127.07l-3.56,-1.84l-63.06,128.63l40.75,21.59l63.74,-130.45l-3.55,-1.81z" class="cls-1"/>
  <path id="svg_3" fill="#c14c1e" d="m809.14,118.67c3.4,-4.47 11.57,-12.54 16.25,-10.2a8,8 0 0 1 3.19,3.66c1.07,2.89 0.93,5.29 -0.43,7.32c-3.81,5.69 -15.86,8.08 -23.85,8.9l4.84,-9.68z" class="cls-1"/>
  <path id="svg_4" fill="#c14c1e" d="m824,111.15a4.9,4.9 0 0 1 1.79,2.19c1,2.74 0.17,3.92 -0.17,4.44c-2.24,3.34 -9.13,5.61 -16.14,6.84l2.18,-4.36c4.18,-5.44 10.42,-10.07 12.34,-9.11m2.69,-5.37c-8.56,-4.28 -20.15,11.3 -20.15,11.3l-7.3,14.61s39.65,-0.94 32.05,-20.77a10.88,10.88 0 0 0 -4.6,-5.14z" class="cls-1"/>
  <path id="svg_5" fill="#c14c1e" d="m800.8,132.45s11.63,18.68 4.7,30.86s-18.35,-7.78 -16,-13s11.3,-17.86 11.3,-17.86z" class="cls-1"/>
  <path id="svg_6" fill="#c14c1e" d="m796.47,169.23c-6.42,-3.21 -12.07,-14.9 -9.74,-20.17c2.41,-5.49 11.26,-17.83 11.64,-18.35l2.61,-3.65l2.37,3.81c0.51,0.82 12.48,20.34 4.75,33.93c-2.84,5 -7.19,6.65 -11.63,4.43zm4,-31.07c-3,4.36 -6.94,10.35 -8.25,13.32c-0.72,2 2.85,10.34 6.93,12.39c0.8,0.4 2,1 3.74,-2c3.92,-6.93 0.61,-17.31 -2.42,-23.71z" class="cls-1"/>
  <path id="svg_7" fill="#c14c1e" d="m792.81,158l-0.29,0.49c-0.19,0.33 -0.46,0.85 -0.79,1.51a45.8,45.8 0 0 0 -2.4,5.71a29.63,29.63 0 0 0 -1.71,8.4a12.43,12.43 0 0 0 2.65,8.71c0.26,0.3 0.55,0.57 0.82,0.86l0.93,0.78l1.07,0.73l1,0.58a11.82,11.82 0 0 0 4.58,1.3a12.49,12.49 0 0 0 4.54,-0.55a17.42,17.42 0 0 0 3.86,-1.71a26.19,26.19 0 0 0 5.11,-4a22.56,22.56 0 0 0 1.68,-1.82a22.27,22.27 0 0 1 -1.49,2a26.64,26.64 0 0 1 -4.78,4.58a18.46,18.46 0 0 1 -3.91,2.24a13.72,13.72 0 0 1 -10.58,0.17c-0.45,-0.18 -0.91,-0.4 -1.37,-0.6l-1.23,-0.68l-1.25,-0.83c-0.38,-0.32 -0.79,-0.63 -1.16,-1a14,14 0 0 1 -3.36,-5.05a19,19 0 0 1 -1.23,-5.66a34,34 0 0 1 0.93,-9.86a52.36,52.36 0 0 1 2,-6.62c0.29,-0.78 0.54,-1.4 0.73,-1.82l0.29,-0.67l5.36,2.81z" class="cls-1"/>
  <path id="svg_8" fill="#c14c1e" d="m790.6,158.29l-0.1,0.07l-0.26,0.18c-0.25,0.18 -0.64,0.47 -1.12,0.89a25.2,25.2 0 0 0 -5.58,7a24.93,24.93 0 0 0 -1.61,3.73a25.21,25.21 0 0 0 -1,4.28a26.1,26.1 0 0 0 -0.23,4.61l0,1.17c0,0.39 0.08,0.78 0.12,1.17a22.2,22.2 0 0 0 0.36,2.31c0.12,0.78 0.32,1.53 0.51,2.27s0.41,1.48 0.64,2.2l0.35,1.06c0.13,0.35 0.26,0.69 0.4,1c0.27,0.67 0.49,1.36 0.8,2l0.84,1.85c0.28,0.59 0.6,1.15 0.88,1.69c0.55,1.09 1.13,2 1.64,2.91s1,1.6 1.37,2.19l1.24,1.88l-1.4,-1.75c-0.47,-0.54 -1,-1.22 -1.62,-2s-1.31,-1.7 -2,-2.74c-0.34,-0.51 -0.72,-1 -1.08,-1.61l-1.07,-1.78c-0.39,-0.6 -0.7,-1.27 -1.06,-1.94c-0.18,-0.33 -0.35,-0.67 -0.53,-1s-0.32,-0.71 -0.49,-1.06c-0.32,-0.72 -0.66,-1.45 -0.93,-2.22s-0.59,-1.53 -0.82,-2.34a25.05,25.05 0 0 1 -0.66,-2.44c-0.1,-0.42 -0.2,-0.84 -0.29,-1.26l-0.2,-1.27a29.87,29.87 0 0 1 -0.33,-5.17a28.13,28.13 0 0 1 2,-9.65a30.79,30.79 0 0 1 1.89,-3.9a29.9,29.9 0 0 1 3.86,-5.27c0.54,-0.59 1,-1 1.34,-1.35c0.17,-0.15 0.31,-0.28 0.43,-0.37l0.14,-0.12l3.57,4.78z" class="cls-1"/>
  <path id="svg_9" fill="#c14c1e" d="m776.93,82.2l-23.74,51.8l-102.19,208.45l3.56,1.83l102.25,-208.62l23.78,-51.84c0.68,-1.61 14.6,-34.87 8,-65.78c7,9 16.92,19.24 29.81,25.69a59.34,59.34 0 0 0 23.6,6.35c-9,15.68 -49.71,87.08 -54.22,99c-3.83,3.49 -31.54,30 -23.26,56.3l-76.74,157.36c1.16,0.68 2.22,1 3.37,1.69l77.3,-158l0.37,-0.74l-0.27,-0.79c-8.7,-25.39 21.94,-52.88 22.25,-53.15l0.4,-0.36l0.17,-0.51c3.63,-10.88 55.23,-100.82 55.75,-101.72l1.73,-3l-3.48,0a55,55 0 0 1 -25.21,-6c-18.29,-9.16 -30.51,-26.43 -36.16,-35.98a57.88,57.88 0 0 0 -3.52,-6.44l-3.48,1.92c0,0.1 1.21,2.57 3.47,6.39c14.82,32.22 -3.38,75.77 -3.54,76.15z" class="cls-1"/>
  <path id="svg_10" fill="#c14c1e" d="m644.49,422.83l182,-376l-1.8,-0.86l-181.95,375.88c0.59,0.32 1.17,0.66 1.75,0.98z" class="cls-1"/>
  <path id="svg_11" fill="#c14c1e" d="m631.44,420.5l184.92,-379.14l-1.8,-0.86l-184.88,379.05l1.76,0.95z" class="cls-1"/>
  <path id="svg_12" fill="#c14c1e" d="m712.7,156.22s0,0.49 0.13,1.4s0.2,2.26 0.29,4s0.17,3.79 0.18,6.18s0,5.09 -0.08,8s-0.26,6.13 -0.5,9.5s-0.58,6.91 -1,10.56s-0.91,7.44 -1.66,11.24c-0.34,1.91 -0.69,3.83 -1,5.75l-1.23,5.76c-0.45,1.92 -0.83,3.85 -1.34,5.74s-1,3.78 -1.51,5.65c-0.91,3.76 -2.21,7.35 -3.31,10.87s-2.43,6.83 -3.63,10c-0.61,1.57 -1.18,3.11 -1.78,4.58l-1.9,4.19c-1.23,2.68 -2.32,5.14 -3.41,7.27s-2.12,3.94 -3,5.45c-1.65,3 -2.63,4.69 -2.63,4.69s0.67,-1.85 1.91,-5c0.63,-1.6 1.37,-3.53 2.27,-5.73c0.46,-1.09 0.82,-2.31 1.27,-3.56s0.92,-2.57 1.41,-4l1.53,-4.28c0.47,-1.5 1,-3 1.47,-4.64c1,-3.18 2.13,-6.51 3.07,-10s2.06,-7.1 2.95,-10.82q0.71,-2.77 1.42,-5.58c0.49,-1.87 0.83,-3.78 1.26,-5.67s0.85,-3.79 1.28,-5.67l1.08,-5.67c0.76,-3.74 1.36,-7.45 2,-11c0.33,-1.79 0.52,-3.57 0.81,-5.3s0.55,-3.43 0.75,-5.08c0.4,-3.32 0.88,-6.45 1.18,-9.35c0.68,-5.8 1.1,-10.66 1.38,-14.06c0.13,-1.71 0.23,-3.05 0.3,-4l0.04,-1.42z" class="cls-1"/>
  <path id="svg_13" fill="#c14c1e" d="m724.65,155.24a5,5 0 0 0 -1.39,3.38c-0.13,8.57 -1,43.07 -7.31,55.88c-7.19,14.67 -0.36,0.75 -0.36,0.75l46.81,-93.6a5,5 0 0 0 -0.4,-5.15l-5.14,-7.23a5,5 0 0 0 -4.73,-2.07l-10.13,1.31a5,5 0 0 0 -4.17,6.38l5.09,17.55a5,5 0 0 1 -1.19,4.85l-17.08,17.95z" class="cls-1"/>
  <path id="svg_14" fill="#c14c1e" d="m753.63,70.85s-5.26,20 3.24,25.38s13.29,5.52 13.29,5.52s13.32,-16.25 -16.53,-30.9z" class="cls-1"/>
  <path id="svg_15" fill="#c14c1e" d="m802.72,28l2.42,-16s14.91,23.29 39.17,21.73l-14.21,12.4l-14.05,-5.91l-11,-7.71l-2.33,-4.51z" class="cls-1"/>
  <path id="svg_16" fill="#c14c1e" d="m786.59,158.6c-5.52,-13.27 0.85,-39.69 10,-55.1l1.72,1c-8.91,15 -15,41 -9.89,53.31l-1.83,0.79z" class="cls-1"/>
  <path id="svg_17" fill="#c14c1e" d="m786.94,124.49s-10.16,19 -3.81,37.49l4.85,-5.26l-1.61,-5.12l0.39,-7.34l1.24,-10.79l2.5,-12.51l-3.56,3.53z" class="cls-1"/>
  <line id="svg_18" stroke-width="2px" stroke-miterlimit="10" stroke="#c14c1e" fill="none" y2="280.43" x2="730.04" y1="261.86" x1="692.9" class="cls-2"/>
  <line id="svg_19" stroke-width="2px" stroke-miterlimit="10" stroke="#c14c1e" fill="none" y2="288.18" x2="726.16" y1="269.61" x1="689.03" class="cls-2"/>
  <line id="svg_20" stroke-width="2px" stroke-miterlimit="10" stroke="#c14c1e" fill="none" y2="277.74" x2="686.68" y1="295.63" x1="722.44" class="cls-2"/>
  <line id="svg_21" stroke-width="2px" stroke-miterlimit="10" stroke="#c14c1e" fill="none" y2="302.35" x2="717.98" y1="283.78" x1="680.85" class="cls-2"/>
  <line id="svg_22" stroke-width="2px" stroke-miterlimit="10" stroke="#c14c1e" fill="none" y2="310.1" x2="714.11" y1="291.53" x1="676.97" class="cls-2"/>
  <line id="svg_23" stroke-width="2px" stroke-miterlimit="10" stroke="#c14c1e" fill="none" y2="299.66" x2="674.62" y1="317.55" x1="710.38" class="cls-2"/>
  <line id="svg_24" stroke-width="2px" stroke-miterlimit="10" stroke="#c14c1e" fill="none" y2="384.79" x2="679.72" y1="366.21" x1="642.58" class="cls-2"/>
  <line id="svg_25" stroke-width="2px" stroke-miterlimit="10" stroke="#c14c1e" fill="none" y2="392.54" x2="675.84" y1="373.97" x1="638.71" class="cls-2"/>
  <line id="svg_26" stroke-width="2px" stroke-miterlimit="10" stroke="#c14c1e" fill="none" y2="382.1" x2="636.36" y1="399.98" x1="672.12" class="cls-2"/>
  <line id="svg_27" stroke-width="2px" stroke-miterlimit="10" stroke="#c14c1e" fill="none" y2="406.71" x2="667.67" y1="388.14" x1="630.53" class="cls-2"/>
  <line id="svg_28" stroke-width="2px" stroke-miterlimit="10" stroke="#c14c1e" fill="none" y2="414.46" x2="663.79" y1="395.89" x1="626.65" class="cls-2"/>
  <line id="svg_29" stroke-width="2px" stroke-miterlimit="10" stroke="#c14c1e" fill="none" y2="404.02" x2="624.3" y1="421.91" x1="660.07" class="cls-2"/>
  <path id="svg_30" fill="#c14c1e" d="m580.7,397.07a95.6,95.6 0 0 1 28.79,-0.51l1.83,0.23l0.91,0.12l0.91,0.17l3.63,0.7c0.61,0.12 1.22,0.22 1.83,0.36l1.87,0.48l3.74,1c0.31,0.08 0.65,0.16 0.92,0.25l0.82,0.27l1.64,0.53l1.65,0.53l0.82,0.27l0.42,0.14a7.4,7.4 0 0 1 0.91,0.32l6.73,2.89a150.87,150.87 0 0 1 26.13,15a121.47,121.47 0 0 1 23,21.48l1.29,1.54l1.2,1.61c0.8,1.09 1.61,2.17 2.41,3.25s1.51,2.24 2.26,3.36s1.51,2.26 2.21,3.43s1.35,2.36 2,3.54l1,1.78l0.93,1.82l1.83,3.68c0.6,1.23 1.11,2.5 1.66,3.76c1.14,2.5 2.05,5.1 3,7.68c0.5,1.29 0.86,2.62 1.28,3.93s0.86,2.64 1.19,4c0.68,2.68 1.42,5.36 1.92,8.08c0.26,1.36 0.58,2.71 0.8,4.08s0.42,2.74 0.64,4.11a142,142 0 0 1 1.37,16.63c0.13,2.78 0,5.57 0,8.37s-0.21,5.58 -0.49,8.37a153,153 0 0 1 -2.2,16.68c-0.49,2.78 -1.12,5.54 -1.76,8.3l-1.06,4.13c-0.38,1.4 -0.82,2.83 -1.23,4.25l-0.31,1.06l-0.31,0.95l-0.62,1.9l-0.31,1l-0.22,0.65l-0.2,0.53l-0.81,2.15l-0.83,2.14l-0.89,1.94c-0.63,1.37 -1.22,2.77 -1.93,4.08a114.35,114.35 0 0 1 -9.16,15.2a149.28,149.28 0 0 1 -23.55,26a156.31,156.31 0 0 1 -29.25,20a143,143 0 0 1 -33.8,12.46a128.41,128.41 0 0 1 -36.34,2.85a137.83,137.83 0 0 1 -35.72,-7.11l-2.17,-0.7c-0.72,-0.25 -1.45,-0.56 -2.18,-0.84l-4.37,-1.71l-2.19,-0.87l-0.54,-0.22l-0.48,-0.22l-0.95,-0.44l-3.81,-1.75l-1.9,-0.88l-1,-0.44l-0.8,-0.4l-0.49,-0.26l-3.93,-2.07l-3.92,-2.08l-3.83,-2.26a188,188 0 0 1 -28.91,-20.91a172.42,172.42 0 0 1 -24.28,-26.36c-0.93,-1.17 -1.77,-2.41 -2.61,-3.64l-2.55,-3.7c-0.84,-1.24 -1.6,-2.54 -2.4,-3.8s-1.59,-2.53 -2.34,-3.83a166.43,166.43 0 0 1 -8.08,-16a155.4,155.4 0 0 1 -10.57,-34a148.27,148.27 0 0 1 -2.5,-35.35a140.64,140.64 0 0 1 2,-17.6c0.58,-2.9 1.09,-5.8 1.87,-8.66l0.54,-2.15c0.17,-0.72 0.36,-1.43 0.59,-2.14l1.29,-4.24c0.2,-0.7 0.47,-1.44 0.73,-2.17l0.79,-2.19l0.8,-2.18c0.14,-0.38 0.27,-0.68 0.4,-1l0.39,-0.93l1.69,-4l1.92,-4a104.22,104.22 0 0 1 9.3,-15.31a78.34,78.34 0 0 1 12.48,-13.18a94.2,94.2 0 0 1 14.61,-10.05c5,-2.82 9.81,-5.13 14.25,-7.41a91.56,91.56 0 0 0 12,-7.08a48.66,48.66 0 0 0 9.27,-8.65a50.13,50.13 0 0 0 3.71,-5.19c0.62,-0.87 1.11,-1.86 1.65,-2.8c0.26,-0.48 0.56,-1 0.79,-1.42l0.68,-1.4c0.46,-0.95 0.92,-1.77 1.41,-3c0.45,-1.07 0.9,-2.14 1.34,-3.21l1.08,-3.06l0.27,-0.77l0.21,-0.76l0.41,-1.54a48.67,48.67 0 0 0 1.7,-12.29c0.06,-8.2 -2.31,-16.37 -5.81,-24.71s-8.06,-16.83 -11.51,-26.47a68.92,68.92 0 0 1 -3.69,-15.31a51.39,51.39 0 0 1 0.69,-16.05l0.39,-1.94c0.15,-0.65 0.35,-1.27 0.53,-1.9l0.55,-1.88l0.27,-0.94l0.36,-1l2.74,-6.46l0.18,-0.37l0.36,-0.75l0.17,-0.37c0.32,-0.65 0.22,-0.41 0.35,-0.66l0.87,-1.57c0.6,-1 1.13,-2.11 1.79,-3.12l1.91,-3c0.65,-1 1.37,-2 2.05,-2.94a77.59,77.59 0 0 1 20.18,-19.62a71.63,71.63 0 0 1 24.81,-10.31a72.36,72.36 0 0 1 25.44,-0.71a83.48,83.48 0 0 1 11.88,2.71a86.39,86.39 0 0 1 10.93,4.43c0.86,0.44 1.71,0.9 2.56,1.35l1.26,0.68l1.23,0.73c0.82,0.5 1.63,1 2.44,1.49l2.41,1.62c0.84,0.54 1.48,1.06 2.19,1.59s1.44,1.08 2.15,1.63c1.32,1 2.61,2 4,3c10.57,7.64 22,12.73 32.94,14.48a41.18,41.18 0 0 0 15.63,-0.35a22.47,22.47 0 0 0 6.52,-2.6a16,16 0 0 0 2.59,-2c0.33,-0.38 0.77,-0.77 1,-1.11c0.14,-0.19 0.28,-0.33 0.43,-0.54l0.49,-0.79l0.12,-0.19c0.09,-0.17 0,0 0,-0.09l0.19,-0.37l0.38,-0.76a14.62,14.62 0 0 0 0.69,-1.51l0.61,-1.53c0.19,-0.51 0.31,-1 0.47,-1.55a24.38,24.38 0 0 0 0.72,-3.1a12,12 0 0 0 0.21,-1.58l0.13,-1a41.22,41.22 0 0 0 -1,-12.16c-0.16,-0.92 -0.42,-1.79 -0.65,-2.66s-0.43,-1.73 -0.71,-2.54c-0.55,-1.65 -1,-3.25 -1.6,-4.73c-1.08,-3 -2.25,-5.66 -3.31,-8.05s-2.07,-4.46 -3,-6.23s-1.64,-3.29 -2.29,-4.48l-1.93,-3.62l2.24,3.44c0.75,1.13 1.63,2.56 2.67,4.27c0.52,0.86 1.11,1.77 1.68,2.78l1.82,3.24c1.25,2.32 2.63,4.92 4,7.88c0.72,1.46 1.32,3.06 2,4.71c0.36,0.81 0.61,1.69 0.93,2.57s0.65,1.77 0.89,2.71a43.9,43.9 0 0 1 2.07,13l-0.06,1.21a16.21,16.21 0 0 1 -0.17,1.73a28.61,28.61 0 0 1 -0.57,3.6c-0.15,0.6 -0.25,1.22 -0.43,1.82l-0.57,1.82a17.09,17.09 0 0 1 -0.69,1.8l-0.37,0.9l-0.18,0.45s-0.18,0.36 -0.16,0.32l-0.03,0.29l-0.43,0.81c-0.18,0.3 -0.42,0.65 -0.63,1l-0.33,0.49l-0.35,0.43l-0.7,0.84a20.89,20.89 0 0 1 -3.28,2.88a27.2,27.2 0 0 1 -7.88,3.79a47.44,47.44 0 0 1 -18,1.58c-12.47,-1.14 -25.25,-6.13 -37.2,-13.73c-1.51,-0.93 -3,-2 -4.46,-3c-1.25,-0.82 -2.89,-2 -4.22,-2.77l-2,-1.22c-0.69,-0.41 -1.45,-0.78 -2.18,-1.17l-1.1,-0.59c-0.38,-0.19 -0.76,-0.36 -1.14,-0.53c-0.75,-0.36 -1.52,-0.71 -2.28,-1.06a75.6,75.6 0 0 0 -9.64,-3.34a72.51,72.51 0 0 0 -10.25,-1.82a61.94,61.94 0 0 0 -21.24,1.61a58.19,58.19 0 0 0 -19.91,9.36a64.92,64.92 0 0 0 -15.77,16.72c-0.53,0.84 -1.1,1.64 -1.6,2.5l-1.5,2.6c-0.51,0.86 -0.92,1.79 -1.39,2.68l-0.69,1.36s-0.23,0.48 0,0.08l-0.17,0.38l-0.56,1.3l-1.88,5l0,0l-0.22,0.62l-0.16,0.69l-0.34,1.37c-0.1,0.46 -0.25,0.91 -0.33,1.37l-0.21,1.38a36.55,36.55 0 0 0 0,11.15a53,53 0 0 0 3.04,11.5c3.08,7.87 7.79,16 12,25.2a102.5,102.5 0 0 1 5.6,14.85a65.92,65.92 0 0 1 0.75,33.84l-0.51,2.09l-0.26,1.05l-0.32,1c-0.44,1.35 -0.87,2.71 -1.31,4.06c0,0.13 -0.28,0.78 -0.26,0.71l-0.17,0.44l-0.33,0.88l-0.68,1.76c-0.39,1.09 -1.06,2.52 -1.66,3.87l-0.92,2c-0.32,0.66 -0.66,1.28 -1,1.92c-0.69,1.27 -1.31,2.56 -2.1,3.8a69.79,69.79 0 0 1 -4.83,7.37a67.52,67.52 0 0 1 -12.82,12.57a110.08,110.08 0 0 1 -14.45,9c-4.75,2.57 -9.26,4.85 -13.35,7.31a72.8,72.8 0 0 0 -11.2,8a60.8,60.8 0 0 0 -9,10a82.62,82.62 0 0 0 -7.18,12.2l-1.53,3.29l-1.4,3.46l-0.38,0.93c-0.12,0.32 -0.26,0.63 -0.33,0.89l-0.55,1.62l-0.51,1.63c-0.19,0.54 -0.38,1.06 -0.54,1.67l-1,3.51c-0.18,0.58 -0.33,1.18 -0.46,1.77l-0.41,1.79c-0.62,2.37 -1,4.82 -1.45,7.24a119.57,119.57 0 0 0 -1.44,14.8a128.18,128.18 0 0 0 2.43,30a132.71,132.71 0 0 0 9.31,29a138.13,138.13 0 0 0 15.57,26.42a155.93,155.93 0 0 0 46.39,40.89l3.38,2l3.48,1.85l3.48,1.85l0.43,0.23c0.43,0.21 -0.09,0 0.14,0.08l0.95,0.44l1.9,0.88l3.79,1.77l1,0.45l0.47,0.21l0.43,0.17l1.72,0.66l3.42,1.35c0.57,0.22 1.12,0.47 1.72,0.67l1.82,0.59a114.26,114.26 0 0 0 29.64,6c1.25,0.07 2.51,0.17 3.76,0.23l3.76,0c2.5,0.07 5,-0.15 7.5,-0.29c0.62,0 1.25,-0.07 1.87,-0.12l1.86,-0.23l3.73,-0.44c1.24,-0.14 2.46,-0.43 3.7,-0.63s2.47,-0.41 3.69,-0.69a119.7,119.7 0 0 0 28.21,-10.12a133.39,133.39 0 0 0 25,-16.77a127.87,127.87 0 0 0 20.34,-21.77a94.63,94.63 0 0 0 7.67,-12.26c0.59,-1 1,-2.1 1.55,-3.15l0.74,-1.58l0.63,-1.59l0.64,-1.58l0.16,-0.4c-0.06,0.19 0.08,-0.22 0.1,-0.3l0.33,-0.94l0.65,-1.89l0.32,-0.94l0.32,-0.83l1,-3.4l1,-3.56c0.58,-2.39 1.2,-4.77 1.68,-7.19a135.59,135.59 0 0 0 2.26,-14.5c0.3,-2.43 0.4,-4.85 0.58,-7.27s0.21,-4.83 0.15,-7.24a121,121 0 0 0 -0.87,-14.29a108.27,108.27 0 0 0 -6.77,-27c-0.43,-1.06 -0.82,-2.15 -1.29,-3.19l-1.45,-3.1l-0.72,-1.55l-0.81,-1.5c-0.53,-1 -1.07,-2 -1.61,-3s-1.18,-1.93 -1.76,-2.9s-1.14,-2 -1.81,-2.87l-1.94,-2.77l-1,-1.38l-1,-1.32a106.65,106.65 0 0 0 -19,-18.86a133.5,133.5 0 0 0 -22.64,-14.11l-6,-2.82c0.87,0.33 0,0 0.09,0l-0.41,-0.14l-0.81,-0.3l-1.63,-0.59l-1.62,-0.59l-0.81,-0.29c-0.27,-0.1 -0.49,-0.15 -0.74,-0.23l-2.88,-0.84l-1.44,-0.43c-0.49,-0.13 -1,-0.24 -1.51,-0.36l-3,-0.71l-0.76,-0.18l-0.76,-0.13" class="cls-1"/>
  <path id="svg_31" fill="#198a4e" d="m208,763.68a46.36,46.36 0 0 1 -36.24,-18a43.69,43.69 0 0 1 -7.84,-38.33c7,-27.64 25.87,-56.65 38.34,-75.84c8.94,-13.77 11.86,-18.45 11.09,-21.16a9.73,9.73 0 0 0 -9.9,-8.27c-6.33,0 -12.64,4.7 -15.36,11.45c-0.5,1.25 -1.19,3.48 -2.14,6.56c-7.19,23.34 -29.07,94.38 -81,94.39l0,0a67.47,67.47 0 0 1 -20.15,-3.29c-19,-6 -30.86,-16 -35.15,-29.68c-9.49,-30.31 20.49,-69.51 20.79,-69.88l1.76,-2.28l-2.74,-0.86c-0.13,0 -13.41,-4.36 -19.65,-17.5c-4.88,-10.27 -4.31,-23.15 1.69,-38.29c8.76,-21.7 32.65,-25 46.11,-25c29,0 62.26,14.32 80.83,34.82l0.12,0.13l0.14,0.11c3.4,2.63 6.44,4 9,4a6.11,6.11 0 0 0 6.07,-4.93c1.71,-6.53 -3.09,-19.61 -16.54,-27.29c-6.14,-5.61 -19.31,-8.9 -34.54,-12.7c-33.6,-8.39 -75.43,-18.84 -65.47,-59.44s57.64,-46.57 85.19,-46.57a179.72,179.72 0 0 1 24.52,1.57l1.17,0.18l0.73,-0.94c0.24,-0.32 24.62,-31.68 59.2,-31.68c14.44,0 28.79,5.44 42.66,16.16c30.14,31.84 1.05,68.69 -20.19,95.6c-8.8,11.14 -15.75,19.94 -17.11,26.53c-1.68,8.14 0.41,12.86 2.46,15.38a12.56,12.56 0 0 0 10,4.49c6.79,0 13.42,-4.36 16.5,-10.85a89.54,89.54 0 0 0 3.56,-10.65c7.48,-25.17 23,-77.54 80.05,-79.32l1.7,0a47.31,47.31 0 0 1 24.82,6.7c8.85,5.43 14.32,13 16.26,22.38c5.3,25.72 -16.9,57.58 -17.12,57.9l-1.62,2.31l2.79,0.74c0.31,0.08 31.37,8.48 42.32,33.33c6.8,15.43 4.57,34.05 -6.62,55.33c-10.34,17.7 -23.29,26.35 -39.55,26.35c-22.63,0 -47.34,-16.87 -67.19,-30.42c-10.23,-7 -19.06,-13 -26,-15.66c-5.75,-2.18 -10.68,-3.26 -14.75,-3.26c-9.68,0 -11.31,6 -11.58,7.9c-0.77,5.3 3.09,11 8.61,12.59c0.68,0.2 67.81,21.12 83.29,59.71c5.21,13 3.83,26.63 -4.12,40.55c-11.81,20.66 -27.69,31.15 -47.2,31.15l0,0c-25.18,0 -47.83,-17.73 -48.06,-17.91l-1.56,-1.24l-1.24,1.56a127.65,127.65 0 0 1 -26.82,24a44.64,44.64 0 0 1 -24.36,7.4l0.04,-0.03z" class="cls-3"/>
  <path id="svg_32" fill="#0e703c" d="m248,387c13.94,0 27.84,5.27 41.31,15.65c12.62,13.39 15.48,28.8 8.76,47.11c-6.05,16.47 -18.87,32.71 -29.17,45.76c-9,11.35 -16,20.31 -17.5,27.36c-1.84,8.91 0.55,14.19 2.87,17a14.55,14.55 0 0 0 11.55,5.23c7.55,0 14.91,-4.82 18.31,-12a87.87,87.87 0 0 0 3.66,-10.93c7.35,-24.72 22.63,-76.16 78.2,-77.89l1.63,0a45.42,45.42 0 0 1 23.78,6.37c8.47,5.2 13.49,12.09 15.34,21.07c5.13,24.83 -16.58,56 -16.8,56.35l-3.31,4.71l5.56,1.47c0.31,0.08 30.47,8.28 41,32.23c6.52,14.82 4.32,32.82 -6.53,53.49c-10,17.06 -22.36,25.36 -37.82,25.36c-22,0 -46.44,-16.67 -66.06,-30.07c-10.33,-7 -19.26,-13.14 -26.4,-15.88c-5.87,-2.27 -11.06,-3.39 -15.38,-3.39c-9,0 -12.88,5 -13.56,9.61c-0.91,6.24 3.59,12.88 10,14.79a219.79,219.79 0 0 1 39,17.09c22.3,12.55 37.18,26.89 43,41.46c5,12.39 3.62,25.45 -4,38.8c-11.44,20 -26.7,30.15 -45.44,30.15c-24.46,0 -46.6,-17.3 -46.82,-17.47l-3.12,-2.43l-2.49,3.11a125.29,125.29 0 0 1 -26.34,23.55a42.1,42.1 0 0 1 -23.23,7.02a44.34,44.34 0 0 1 -34.66,-17.21a41.67,41.67 0 0 1 -7.48,-36.6c7,-27.33 25.68,-56.17 38.07,-75.25c9.65,-14.84 12.35,-19.23 11.36,-22.74c-1.26,-6 -5.78,-9.78 -11.84,-9.79c-7.12,0 -14.2,5.23 -17.21,12.71c-0.54,1.33 -1.24,3.59 -2.2,6.72c-7.09,23 -28.64,93 -79,93a65.4,65.4 0 0 1 -19.55,-3.2c-18.49,-5.8 -29.83,-15.32 -33.92,-28.32c-9.19,-29.29 20.16,-67.71 20.45,-68.1l3.53,-4.55l-5.5,-1.72c-0.12,0 -12.51,-4 -18.41,-16.4c-4.66,-9.76 -4.08,-22.12 1.71,-36.72c8.32,-20.63 31.3,-23.71 44.26,-23.71c28.5,0 61.13,14 79.35,34.16l0.24,0.26l0.28,0.22c3.76,2.91 7.2,4.38 10.23,4.38a8.11,8.11 0 0 0 8,-6.43c2.65,-10.12 -6.74,-23.27 -17.29,-29.41c-6.58,-5.87 -19.89,-9.19 -35.24,-13c-16.69,-4.17 -35.61,-8.9 -48.85,-17.61c-14.59,-9.61 -19.41,-22.13 -15.17,-39.42c4.16,-16.95 15.54,-29.33 33.83,-36.79c16.69,-6.82 36.09,-8.25 49.42,-8.25a177.53,177.53 0 0 1 24.22,1.55l2.35,0.36l1.44,-1.89c0.23,-0.31 23.95,-30.89 57.61,-30.89m0,-4c-36,0 -60.79,32.46 -60.79,32.46a181.13,181.13 0 0 0 -24.83,-1.59c-29.79,0 -77,6.76 -87.13,48.09c-15.07,61.41 82.28,56.8 100.76,74.25c16.72,9.42 20,28.59 11.66,28.59c-2,0 -4.57,-1.06 -7.79,-3.55c-19.67,-21.71 -53.58,-35.47 -82.31,-35.47c-21.77,0 -40.58,7.9 -48,26.21c-18.45,46.59 19.26,58.37 19.26,58.37s-61,78.7 15.34,102.71a68.86,68.86 0 0 0 20.8,3.39c60.18,0 80.78,-91.84 85,-102.21c2.62,-6.51 8.51,-10.2 13.5,-10.2c3.79,0 7.06,2.14 8,6.78c1.87,5.24 -38.37,52.55 -49.43,96c-8.11,31.89 17.48,58.8 46,58.8a46.31,46.31 0 0 0 25.34,-7.67a128.48,128.48 0 0 0 27.29,-24.4s23.1,18.3 49.3,18.3c16.78,0 34.85,-7.52 48.93,-32.19c36.08,-63.2 -69.31,-99.89 -80.34,-103.17c-8.77,-2.61 -11.41,-16.54 2.41,-16.54c3.54,0 8.15,0.91 14,3.16c20.07,7.69 59,46.21 93.89,46.21c15.15,0 29.54,-7.26 41.32,-27.41c37.87,-72 -37,-91.54 -37,-91.54s41,-58.15 0.28,-83.14a49.4,49.4 0 0 0 -25.87,-7l-1.76,0c-69.31,2.16 -79,77.7 -85.35,91.11a16.71,16.71 0 0 1 -14.69,9.71c-7,0 -13,-5.43 -10.5,-17.46c4.47,-21.62 80.66,-77.81 36.69,-124c-15.72,-12.21 -30.61,-16.64 -44.01,-16.64l0.03,0.04z" class="cls-4"/>
  <path id="svg_33" fill="#198a4e" d="m200.6,407.35s-28.63,17 -16.78,71.55" class="cls-3"/>
  <path id="svg_34" fill="#0e703c" d="m200.6,407.35a40.37,40.37 0 0 0 -6.33,7.21c-0.44,0.66 -0.93,1.28 -1.34,1.95l-1.21,2l-0.61,1l-0.53,1.06l-1.06,2.1a69.15,69.15 0 0 0 -5.43,18c-0.23,1.56 -0.54,3.11 -0.71,4.67l-0.39,4.73c-0.06,0.79 -0.18,1.57 -0.19,2.37l0,2.38c0,1.58 0,3.18 -0.09,4.77l0.38,9.61c0.3,3.2 0.61,6.41 0.75,9.69c-1,-3.09 -1.84,-6.25 -2.69,-9.42c-0.58,-3.2 -1.16,-6.44 -1.56,-9.7c-0.12,-1.64 -0.22,-3.28 -0.29,-4.93l-0.13,-2.47c0,-0.82 0,-1.65 0.06,-2.48l0.24,-5c0.16,-1.65 0.47,-3.29 0.7,-4.93a54.88,54.88 0 0 1 6.63,-18.75a42.7,42.7 0 0 1 6,-7.95a29,29 0 0 1 7.8,-5.91z" class="cls-4"/>
  <path id="svg_35" fill="#0e703c" d="m66.2,605.34a33,33 0 0 0 7,2.08c0.59,0.09 1.17,0.24 1.76,0.32l1.78,0.2c1.18,0.19 2.38,0.14 3.56,0.23a54.55,54.55 0 0 0 14,-1.59c1.15,-0.29 2.32,-0.53 3.46,-0.87l3.41,-1.1c0.56,-0.19 1.15,-0.33 1.7,-0.55l1.68,-0.67c1.11,-0.45 2.24,-0.88 3.37,-1.3l6.67,-3c2.19,-1.09 4.38,-2.21 6.7,-3.19c-1.81,1.71 -3.74,3.28 -5.68,4.88c-2.06,1.4 -4.14,2.82 -6.3,4.1c-1.12,0.58 -2.24,1.16 -3.37,1.72l-1.7,0.84c-0.57,0.27 -1.17,0.46 -1.76,0.7l-3.48,1.35c-1.21,0.38 -2.46,0.66 -3.69,1a41,41 0 0 1 -15.31,0.81a32.19,32.19 0 0 1 -7.39,-2a21.52,21.52 0 0 1 -6.41,-3.96z" class="cls-4"/>
  <path id="svg_36" fill="#0e703c" d="m333,561a40.23,40.23 0 0 0 9.58,-0.58c0.78,-0.15 1.56,-0.24 2.33,-0.41l2.3,-0.58l1.14,-0.28l1.13,-0.37l2.24,-0.72a68.84,68.84 0 0 0 16.59,-8.77c1.27,-0.93 2.58,-1.8 3.82,-2.78l3.63,-3c0.61,-0.52 1.25,-1 1.82,-1.53l1.71,-1.66c1.13,-1.12 2.29,-2.21 3.46,-3.29l6.56,-7c2.06,-2.46 4.13,-4.94 6.36,-7.35c-1.49,2.89 -3.14,5.71 -4.8,8.54c-1.87,2.67 -3.77,5.35 -5.8,7.93c-1.08,1.23 -2.18,2.47 -3.3,3.67l-1.67,1.83c-0.56,0.6 -1.2,1.13 -1.8,1.7l-3.7,3.32c-1.28,1 -2.66,2 -4,3a54.83,54.83 0 0 1 -18,8.47a42.8,42.8 0 0 1 -9.87,1.33a29,29 0 0 1 -9.73,-1.47z" class="cls-4"/>
  <path id="svg_37" fill="#0e703c" d="m232.22,670a40.42,40.42 0 0 0 0.11,9.59c0.11,0.79 0.16,1.58 0.3,2.36l0.46,2.32l0.23,1.16l0.31,1.14l0.61,2.28a69.18,69.18 0 0 0 7.95,17c0.87,1.31 1.67,2.66 2.59,3.94l2.86,3.78c0.49,0.63 0.92,1.29 1.44,1.89l1.58,1.79q1.58,1.77 3.11,3.62l6.7,6.89c2.36,2.18 4.74,4.37 7,6.72c-2.82,-1.63 -5.54,-3.42 -8.29,-5.21c-2.57,-2 -5.16,-4 -7.64,-6.19c-1.18,-1.14 -2.36,-2.3 -3.51,-3.47l-1.74,-1.76c-0.57,-0.59 -1.07,-1.26 -1.61,-1.88l-3.13,-3.86c-1,-1.33 -1.85,-2.76 -2.78,-4.14a55,55 0 0 1 -7.58,-18.38a42.47,42.47 0 0 1 -0.84,-9.92a29.06,29.06 0 0 1 1.87,-9.67z" class="cls-4"/>
  <path id="svg_38" fill="#2fb36d" d="m102.63,466.86c8.88,6.47 44.91,-31.21 28.72,-33.6c-10.12,-1.49 -42.13,23.83 -28.72,33.6z" class="cls-5"/>
  <path id="svg_39" fill="#2fb36d" d="m99.4,478.71c-5.23,-1.1 -3.81,15.68 4.3,16.39s2.35,-14.75 -4.3,-16.39z" class="cls-5"/>
  <path id="svg_40" fill="#2fb36d" d="m338.39,708.58c-6.16,-9.1 -52.85,14.08 -38.44,21.83c9.05,4.84 47.72,-8.08 38.44,-21.83z" class="cls-5"/>
  <path id="svg_41" fill="#2fb36d" d="m345.45,698.53c4.55,2.82 8.92,-13.44 1.53,-16.87s-7.23,13.07 -1.53,16.87z" class="cls-5"/>
  <path id="svg_42" fill="#2fb36d" d="m341.63,465.94c0.65,9.93 47.12,-4.67 45.35,-10.29c-2.55,-8.13 -46.66,-10.07 -45.35,10.29z" class="cls-5"/>
  <path id="svg_43" fill="#2fb36d" d="m114.21,695.74c3.48,-9.31 -44.89,-15.06 -45.58,-9.21c-1.01,8.47 38.42,28.33 45.58,9.21z" class="cls-5"/>
  <path id="svg_44" fill="#c14c1e" d="m637.68,599.86q-23,15.25 -58,15.25q-24.63,0 -42.68,-6.93a84.45,84.45 0 0 1 -30.37,-19.4a79.81,79.81 0 0 1 -18.42,-29.78a126.66,126.66 0 0 1 -6.95,-37.76a95.41,95.41 0 0 1 7.15,-37.42a87.87,87.87 0 0 1 20,-29.45a91.51,91.51 0 0 1 30.59,-19.37a105.12,105.12 0 0 1 38.73,-7q27.4,0 45.46,9.87a85.35,85.35 0 0 1 29,25.12a92.51,92.51 0 0 1 15.09,33.26a125,125 0 0 1 3.37,34.3l-153.65,0a62.52,62.52 0 0 0 3.18,22.35a48.84,48.84 0 0 0 11.51,18.71a56.83,56.83 0 0 0 20.25,13q12.3,4.86 29,4.85q21.44,0 35.14,-8.66t18.06,-26.33l33.35,0q-6.79,30.15 -29.81,45.39zm-8.14,-115a50.47,50.47 0 0 0 -12.3,-16.11a59.88,59.88 0 0 0 -18.24,-10.75a65.19,65.19 0 0 0 -23.22,-4a66.37,66.37 0 0 0 -23.62,4a55.35,55.35 0 0 0 -18.07,10.91a52.25,52.25 0 0 0 -11.94,16.09a55,55 0 0 0 -5.15,19.59l117.9,0a54.12,54.12 0 0 0 -5.36,-19.75l0,0.02z" class="cls-1"/>
  <path id="svg_45" fill="#f6b618" d="m881.82,429.91q-15.82,-11.49 -40.52,-11.5a97.17,97.17 0 0 0 -19.67,2a52.37,52.37 0 0 0 -17.17,6.67a35.09,35.09 0 0 0 -12,12.5q-4.5,7.85 -4.5,19.51q0,11 6.5,17.84t17.34,11.17a144.81,144.81 0 0 0 24.5,7.16q13.68,2.85 27.84,6.17t27.86,7.84a91.83,91.83 0 0 1 24.5,12.17a58,58 0 0 1 17.34,19.34q6.49,11.67 6.5,29.34q0,19 -8.5,32.51a70,70 0 0 1 -21.84,22a95.1,95.1 0 0 1 -29.85,12.37a145,145 0 0 1 -32.84,3.83a139.38,139.38 0 0 1 -37.85,-5a93.36,93.36 0 0 1 -31.34,-15.17a71.91,71.91 0 0 1 -21.34,-26q-7.83,-15.82 -7.83,-37.51l30,0q0,15 5.83,25.84a53,53 0 0 0 15.34,17.84a64.54,64.54 0 0 0 22.17,10.34a101.88,101.88 0 0 0 26,3.33a117.62,117.62 0 0 0 21.5,-2a63.41,63.41 0 0 0 19.51,-6.83a38.86,38.86 0 0 0 14,-13.17q5.32,-8.34 5.34,-21.34q0,-12.33 -6.51,-20a47.73,47.73 0 0 0 -17.33,-12.5a127.35,127.35 0 0 0 -24.51,-7.84q-13.68,-3 -27.84,-6.16t-27.84,-7.34a100.53,100.53 0 0 1 -24.51,-11a52.75,52.75 0 0 1 -17.33,-17.67q-6.51,-10.83 -6.51,-27.18q0,-18 7.34,-31.17a64.06,64.06 0 0 1 19.5,-21.67a87.5,87.5 0 0 1 27.68,-12.67a122,122 0 0 1 31.84,-4.17a127.65,127.65 0 0 1 34,4.33a77.1,77.1 0 0 1 27.5,13.67a66,66 0 0 1 18.68,23.51q6.82,14.17 7.5,33.84l-30,0q-2.65,-25.71 -18.48,-37.23z" class="cls-6"/>
  <path id="svg_46" fill="#f6b618" d="m970,513.94a80.43,80.43 0 0 1 16,-28.68a75.4,75.4 0 0 1 26.34,-19.17q15.66,-7 36,-7q20.67,0 36.17,7a75.89,75.89 0 0 1 26.18,19.17a80.57,80.57 0 0 1 16,28.68a115,115 0 0 1 5.34,35.51a113.4,113.4 0 0 1 -5.34,35.34a80.72,80.72 0 0 1 -16,28.5a73.87,73.87 0 0 1 -26.18,19q-15.49,6.83 -36.17,6.84q-20.34,0 -36,-6.84a73.42,73.42 0 0 1 -26.34,-19a80.59,80.59 0 0 1 -16,-28.5a113.4,113.4 0 0 1 -5.33,-35.34a115,115 0 0 1 5.33,-35.51zm28.84,63.35a58.22,58.22 0 0 0 11.51,20.33a49.76,49.76 0 0 0 17.17,12.51a52.32,52.32 0 0 0 41.68,0a50,50 0 0 0 17.17,-12.51a58.36,58.36 0 0 0 11.5,-20.33a95.05,95.05 0 0 0 0,-55.69a60.3,60.3 0 0 0 -11.5,-20.5a49.14,49.14 0 0 0 -17.17,-12.67a52.21,52.21 0 0 0 -41.68,0a49,49 0 0 0 -17.17,12.67a60.15,60.15 0 0 0 -11.51,20.5a95.27,95.27 0 0 0 0,55.69z" class="cls-6"/>
  <path id="svg_47" fill="#f6b618" d="m1268.41,493.1q-10.68,-9 -28.67,-9q-15.35,0 -25.68,5.67a45.8,45.8 0 0 0 -16.5,15a63,63 0 0 0 -8.84,21.5a117.24,117.24 0 0 0 -2.66,25.18a95.72,95.72 0 0 0 2.83,23.33a62.4,62.4 0 0 0 8.84,20.18a44.76,44.76 0 0 0 15.67,14.17q9.66,5.34 23,5.33q21,0 32.84,-11t14.51,-31l29,0q-4.68,32 -23.84,49.35t-52.18,17.34q-19.68,0 -34.85,-6.34a67.55,67.55 0 0 1 -25.34,-18a77.73,77.73 0 0 1 -15.32,-27.81a115.91,115.91 0 0 1 -5.17,-35.5a126.7,126.7 0 0 1 5,-36.18a83.58,83.58 0 0 1 15.17,-29.34a71.13,71.13 0 0 1 25.51,-19.67q15.33,-7.17 35.67,-7.17a104.38,104.38 0 0 1 27.51,3.5a67,67 0 0 1 22.67,10.84a59.14,59.14 0 0 1 16.17,18.5q6.33,11.18 8,26.51l-29.35,0q-3.32,-16.38 -13.99,-25.39z" class="cls-6"/>
  <path id="svg_48" fill="#f6b618" d="m1346.09,432.08l0,-34.67l28.34,0l0,34.67l-28.34,0zm28.34,31l0,172.39l-28.34,0l0,-172.38l28.34,-0.01z" class="cls-6"/>
  <path id="svg_49" fill="#f6b618" d="m1540.47,624.46q-19.34,14.68 -48.68,14.68q-20.67,0 -35.84,-6.67a70.68,70.68 0 0 1 -25.51,-18.67a79.28,79.28 0 0 1 -15.5,-28.68a138.12,138.12 0 0 1 -5.84,-36.34a103.77,103.77 0 0 1 6,-36a86.09,86.09 0 0 1 16.83,-28.34a76.39,76.39 0 0 1 25.68,-18.67a78.29,78.29 0 0 1 32.51,-6.67q23,0 38.17,9.5a75.65,75.65 0 0 1 24.34,24.17a95.69,95.69 0 0 1 12.67,32a137.23,137.23 0 0 1 2.84,33l-129,0a68.52,68.52 0 0 0 2.67,21.51a48.59,48.59 0 0 0 9.67,18a47.54,47.54 0 0 0 17,12.5q10.33,4.68 24.34,4.67q18,0 29.51,-8.33t15.17,-25.34l28,0q-5.69,29.01 -25.03,43.68zm-6.83,-110.69a48.51,48.51 0 0 0 -10.34,-15.5a51,51 0 0 0 -54.68,-10.34a45.91,45.91 0 0 0 -15.17,10.5a50.11,50.11 0 0 0 -10,15.51a59.05,59.05 0 0 0 -4.34,18.83l99,0a58.29,58.29 0 0 0 -4.47,-19z" class="cls-6"/>
  <path id="svg_50" fill="#f6b618" d="m1671.17,463.09l0,25l-34.34,0l0,107a30.79,30.79 0 0 0 0.83,8a8.17,8.17 0 0 0 3.17,4.66a13.82,13.82 0 0 0 6.5,2.17a95.36,95.36 0 0 0 10.84,0.5l13,0l0,25l-21.67,0a101.75,101.75 0 0 1 -18.84,-1.5a27.7,27.7 0 0 1 -12.67,-5.5a23.44,23.44 0 0 1 -7.17,-11.34q-2.34,-7.33 -2.33,-19.34l0,-109.64l-29.35,0l0,-25l29.35,0l0,-51.69l28.34,0l0,51.68l34.34,0z" class="cls-6"/>
  <path id="svg_51" fill="#f6b618" d="m1770.19,658.47a181.48,181.48 0 0 1 -9.84,21.34a58.1,58.1 0 0 1 -10.67,14.19a36.22,36.22 0 0 1 -13,8a50.2,50.2 0 0 1 -16.5,2.5a76.5,76.5 0 0 1 -10,-0.67a48.38,48.38 0 0 1 -9.67,-2.33l0,-26a47.91,47.91 0 0 0 8.51,2.83a35.71,35.71 0 0 0 8.17,1.17q8.65,0 14.5,-4.17a25.47,25.47 0 0 0 8.83,-11.84l11.67,-29l-68.35,-171.38l32,0l50.35,141l0.66,0l48.35,-141l30,0l-75.01,195.36z" class="cls-6"/>
 </g>
</svg>