<svg id="Layer_2" data-name="Layer 2" xmlns="http://www.w3.org/2000/svg" viewBox="0 0 1846.05 916.23"><defs><style>.cls-1{fill:#c14c1e;}.cls-2{fill:none;stroke:#c14c1e;stroke-miterlimit:10;stroke-width:2px;}.cls-3{fill:#198a4e;}.cls-4{fill:#0e703c;}.cls-5{fill:#2fb36d;}.cls-6{fill:#ffffff;}</style></defs><title>esociety-logo-v02</title><path class="cls-1" d="M506.83,637.5,443.09,765c-20,40-99.6,163.33-284,71.12-68.46-34.24-106-81.83-111.54-141.44C43.33,649.05,59.83,612.44,60,612.16l.5-1,.43-1.32c.18-.51,18.09-51.3,62.19-62l-4.78-19.73-.25.13s-59.59-9.58-94.48,56.64c-.58,1.07-1.13,2-1.66,2.93h0l-3.4,6.8c-3.68,8.48-20.21,50-15.93,101.94,4.36,53,31.57,127.3,136.41,179.73,46,23,90.18,35.75,131.35,37.89,36.49,1.9,70.88-4.46,102.22-18.9,65.27-30.07,99.21-87.1,110.78-110.22l63.74-127.45Z"/><path class="cls-1" d="M720.7,295.33,657.77,424.12l-33.66-17.84,62.27-127.07-3.56-1.84L619.76,406l40.75,21.59,63.74-130.45Z"/><path class="cls-1" d="M809.14,118.67c3.4-4.47,11.57-12.54,16.25-10.2a8,8,0,0,1,3.19,3.66c1.07,2.89.93,5.29-.43,7.32-3.81,5.69-15.86,8.08-23.85,8.9Z"/><path class="cls-1" d="M824,111.15a4.9,4.9,0,0,1,1.79,2.19c1,2.74.17,3.92-.17,4.44-2.24,3.34-9.13,5.61-16.14,6.84l2.18-4.36c4.18-5.44,10.42-10.07,12.34-9.11m2.69-5.37c-8.56-4.28-20.15,11.3-20.15,11.3l-7.3,14.61s39.65-.94,32.05-20.77a10.88,10.88,0,0,0-4.6-5.14Z"/><path class="cls-1" d="M800.8,132.45s11.63,18.68,4.7,30.86-18.35-7.78-16-13S800.8,132.45,800.8,132.45Z"/><path class="cls-1" d="M796.47,169.23c-6.42-3.21-12.07-14.9-9.74-20.17,2.41-5.49,11.26-17.83,11.64-18.35l2.61-3.65,2.37,3.81c.51.82,12.48,20.34,4.75,33.93C805.26,169.8,800.91,171.45,796.47,169.23Zm4-31.07c-3,4.36-6.94,10.35-8.25,13.32-.72,2,2.85,10.34,6.93,12.39.8.4,2,1,3.74-2C806.81,154.94,803.5,144.56,800.47,138.16Z"/><path class="cls-1" d="M792.81,158l-.29.49c-.19.33-.46.85-.79,1.51a45.8,45.8,0,0,0-2.4,5.71,29.63,29.63,0,0,0-1.71,8.4,12.43,12.43,0,0,0,2.65,8.71c.26.3.55.57.82.86l.93.78,1.07.73,1,.58a11.82,11.82,0,0,0,4.58,1.3,12.49,12.49,0,0,0,4.54-.55,17.42,17.42,0,0,0,3.86-1.71,26.19,26.19,0,0,0,5.11-4,22.56,22.56,0,0,0,1.68-1.82,22.27,22.27,0,0,1-1.49,2,26.64,26.64,0,0,1-4.78,4.58,18.46,18.46,0,0,1-3.91,2.24,13.72,13.72,0,0,1-10.58.17c-.45-.18-.91-.4-1.37-.6l-1.23-.68-1.25-.83c-.38-.32-.79-.63-1.16-1a14,14,0,0,1-3.36-5.05,19,19,0,0,1-1.23-5.66,34,34,0,0,1,.93-9.86,52.36,52.36,0,0,1,2-6.62c.29-.78.54-1.4.73-1.82l.29-.67Z"/><path class="cls-1" d="M790.6,158.29l-.1.07-.26.18c-.25.18-.64.47-1.12.89a25.2,25.2,0,0,0-5.58,7,24.93,24.93,0,0,0-1.61,3.73,25.21,25.21,0,0,0-1,4.28,26.1,26.1,0,0,0-.23,4.61l0,1.17c0,.39.08.78.12,1.17a22.2,22.2,0,0,0,.36,2.31c.12.78.32,1.53.51,2.27s.41,1.48.64,2.2l.35,1.06c.13.35.26.69.4,1,.27.67.49,1.36.8,2l.84,1.85c.28.59.6,1.15.88,1.69.55,1.09,1.13,2,1.64,2.91s1,1.6,1.37,2.19l1.24,1.88L788.45,201c-.47-.54-1-1.22-1.62-2s-1.31-1.7-2-2.74c-.34-.51-.72-1-1.08-1.61l-1.07-1.78c-.39-.6-.7-1.27-1.06-1.94-.18-.33-.35-.67-.53-1s-.32-.71-.49-1.06c-.32-.72-.66-1.45-.93-2.22s-.59-1.53-.82-2.34a25.05,25.05,0,0,1-.66-2.44c-.1-.42-.2-.84-.29-1.26l-.2-1.27a29.87,29.87,0,0,1-.33-5.17,28.13,28.13,0,0,1,2-9.65,30.79,30.79,0,0,1,1.89-3.9,29.9,29.9,0,0,1,3.86-5.27c.54-.59,1-1,1.34-1.35.17-.15.31-.28.43-.37l.14-.12Z"/><path class="cls-1" d="M776.93,82.2,753.19,134,651,342.45l3.56,1.83L756.81,135.66l23.78-51.84c.68-1.61,14.6-34.87,8-65.78,7,9,16.92,19.24,29.81,25.69A59.34,59.34,0,0,0,842,50.08c-9,15.68-49.71,87.08-54.22,99-3.83,3.49-31.54,30-23.26,56.3L687.78,362.74c1.16.68,2.22,1,3.37,1.69l77.3-158,.37-.74-.27-.79c-8.7-25.39,21.94-52.88,22.25-53.15l.4-.36.17-.51C795,140,846.6,50.06,847.12,49.16l1.73-3-3.48,0a55,55,0,0,1-25.21-6C801.87,31,789.65,13.73,784,4.18a57.88,57.88,0,0,0-3.52-6.44L777-.34c0,.1,1.21,2.57,3.47,6.39C795.29,38.27,777.09,81.82,776.93,82.2Z"/><path class="cls-1" d="M644.49,422.83l182-376-1.8-.86L642.74,421.85C643.33,422.17,643.91,422.51,644.49,422.83Z"/><path class="cls-1" d="M631.44,420.5,816.36,41.36l-1.8-.86L629.68,419.55Z"/><path class="cls-1" d="M712.7,156.22s0,.49.13,1.4.2,2.26.29,4,.17,3.79.18,6.18,0,5.09-.08,8-.26,6.13-.5,9.5-.58,6.91-1,10.56-.91,7.44-1.66,11.24c-.34,1.91-.69,3.83-1,5.75l-1.23,5.76c-.45,1.92-.83,3.85-1.34,5.74s-1,3.78-1.51,5.65c-.91,3.76-2.21,7.35-3.31,10.87s-2.43,6.83-3.63,10c-.61,1.57-1.18,3.11-1.78,4.58l-1.9,4.19c-1.23,2.68-2.32,5.14-3.41,7.27s-2.12,3.94-3,5.45c-1.65,3-2.63,4.69-2.63,4.69s.67-1.85,1.91-5c.63-1.6,1.37-3.53,2.27-5.73.46-1.09.82-2.31,1.27-3.56s.92-2.57,1.41-4l1.53-4.28c.47-1.5,1-3,1.47-4.64,1-3.18,2.13-6.51,3.07-10s2.06-7.1,2.95-10.82q.71-2.77,1.42-5.58c.49-1.87.83-3.78,1.26-5.67s.85-3.79,1.28-5.67l1.08-5.67c.76-3.74,1.36-7.45,2-11,.33-1.79.52-3.57.81-5.3s.55-3.43.75-5.08c.4-3.32.88-6.45,1.18-9.35.68-5.8,1.1-10.66,1.38-14.06.13-1.71.23-3.05.3-4Z"/><path class="cls-1" d="M724.65,155.24a5,5,0,0,0-1.39,3.38c-.13,8.57-1,43.07-7.31,55.88-7.19,14.67-.36.75-.36.75l46.81-93.6a5,5,0,0,0-.4-5.15l-5.14-7.23a5,5,0,0,0-4.73-2.07L742,108.51a5,5,0,0,0-4.17,6.38l5.09,17.55a5,5,0,0,1-1.19,4.85Z"/><path class="cls-1" d="M753.63,70.85s-5.26,20,3.24,25.38,13.29,5.52,13.29,5.52S783.48,85.5,753.63,70.85Z"/><path class="cls-1" d="M802.72,28l2.42-16s14.91,23.29,39.17,21.73L830.1,46.13l-14.05-5.91-11-7.71Z"/><path class="cls-1" d="M786.59,158.6c-5.52-13.27.85-39.69,10-55.1l1.72,1c-8.91,15-15,41-9.89,53.31Z"/><path class="cls-1" d="M786.94,124.49s-10.16,19-3.81,37.49l4.85-5.26-1.61-5.12.39-7.34L788,133.47l2.5-12.51Z"/><line class="cls-2" x1="692.9" y1="261.86" x2="730.04" y2="280.43"/><line class="cls-2" x1="689.03" y1="269.61" x2="726.16" y2="288.18"/><line class="cls-2" x1="722.44" y1="295.63" x2="686.68" y2="277.74"/><line class="cls-2" x1="680.85" y1="283.78" x2="717.98" y2="302.35"/><line class="cls-2" x1="676.97" y1="291.53" x2="714.11" y2="310.1"/><line class="cls-2" x1="710.38" y1="317.55" x2="674.62" y2="299.66"/><line class="cls-2" x1="642.58" y1="366.21" x2="679.72" y2="384.79"/><line class="cls-2" x1="638.71" y1="373.97" x2="675.84" y2="392.54"/><line class="cls-2" x1="672.12" y1="399.98" x2="636.36" y2="382.1"/><line class="cls-2" x1="630.53" y1="388.14" x2="667.67" y2="406.71"/><line class="cls-2" x1="626.65" y1="395.89" x2="663.79" y2="414.46"/><line class="cls-2" x1="660.07" y1="421.91" x2="624.3" y2="404.02"/><path class="cls-1" d="M580.7,397.07a95.6,95.6,0,0,1,28.79-.51l1.83.23.91.12.91.17,3.63.7c.61.12,1.22.22,1.83.36l1.87.48,3.74,1c.31.08.65.16.92.25l.82.27,1.64.53,1.65.53.82.27.42.14a7.4,7.4,0,0,1,.91.32l6.73,2.89a150.87,150.87,0,0,1,26.13,15,121.47,121.47,0,0,1,23,21.48l1.29,1.54,1.2,1.61c.8,1.09,1.61,2.17,2.41,3.25s1.51,2.24,2.26,3.36,1.51,2.26,2.21,3.43,1.35,2.36,2,3.54l1,1.78.93,1.82,1.83,3.68c.6,1.23,1.11,2.5,1.66,3.76,1.14,2.5,2.05,5.1,3,7.68.5,1.29.86,2.62,1.28,3.93s.86,2.64,1.19,4c.68,2.68,1.42,5.36,1.92,8.08.26,1.36.58,2.71.8,4.08s.42,2.74.64,4.11a142,142,0,0,1,1.37,16.63c.13,2.78,0,5.57,0,8.37s-.21,5.58-.49,8.37A153,153,0,0,1,711.55,551c-.49,2.78-1.12,5.54-1.76,8.3l-1.06,4.13c-.38,1.4-.82,2.83-1.23,4.25l-.31,1.06-.31.95-.62,1.9-.31,1-.22.65-.2.53-.81,2.15-.83,2.14L703,580c-.63,1.37-1.22,2.77-1.93,4.08a114.35,114.35,0,0,1-9.16,15.2,149.28,149.28,0,0,1-23.55,26,156.31,156.31,0,0,1-29.25,20,143,143,0,0,1-33.8,12.46,128.41,128.41,0,0,1-36.34,2.85,137.83,137.83,0,0,1-35.72-7.11l-2.17-.7c-.72-.25-1.45-.56-2.18-.84l-4.37-1.71-2.19-.87-.54-.22-.48-.22-.95-.44-3.81-1.75-1.9-.88-1-.44-.8-.4-.49-.26-3.93-2.07-3.92-2.08-3.83-2.26a188,188,0,0,1-28.91-20.91,172.42,172.42,0,0,1-24.28-26.36c-.93-1.17-1.77-2.41-2.61-3.64l-2.55-3.7c-.84-1.24-1.6-2.54-2.4-3.8s-1.59-2.53-2.34-3.83a166.43,166.43,0,0,1-8.08-16,155.4,155.4,0,0,1-10.57-34,148.27,148.27,0,0,1-2.5-35.35,140.64,140.64,0,0,1,2-17.6c.58-2.9,1.09-5.8,1.87-8.66l.54-2.15c.17-.72.36-1.43.59-2.14l1.29-4.24c.2-.7.47-1.44.73-2.17l.79-2.19.8-2.18c.14-.38.27-.68.4-1l.39-.93,1.69-4,1.92-4a104.22,104.22,0,0,1,9.3-15.31A78.34,78.34,0,0,1,451.24,411a94.2,94.2,0,0,1,14.61-10.05c5-2.82,9.81-5.13,14.25-7.41a91.56,91.56,0,0,0,12-7.08,48.66,48.66,0,0,0,9.27-8.65,50.13,50.13,0,0,0,3.71-5.19c.62-.87,1.11-1.86,1.65-2.8.26-.48.56-1,.79-1.42l.68-1.4c.46-.95.92-1.77,1.41-3,.45-1.07.9-2.14,1.34-3.21l1.08-3.06.27-.77.21-.76.41-1.54a48.67,48.67,0,0,0,1.7-12.29c.06-8.2-2.31-16.37-5.81-24.71s-8.06-16.83-11.51-26.47a68.92,68.92,0,0,1-3.69-15.31,51.39,51.39,0,0,1,.69-16.05l.39-1.94c.15-.65.35-1.27.53-1.9l.55-1.88.27-.94.36-1,2.74-6.46.18-.37.36-.75.17-.37c.32-.65.22-.41.35-.66l.87-1.57c.6-1,1.13-2.11,1.79-3.12l1.91-3c.65-1,1.37-2,2.05-2.94A77.59,77.59,0,0,1,527,213.31,71.63,71.63,0,0,1,551.81,203a72.36,72.36,0,0,1,25.44-.71A83.48,83.48,0,0,1,589.13,205a86.39,86.39,0,0,1,10.93,4.43c.86.44,1.71.9,2.56,1.35l1.26.68,1.23.73c.82.5,1.63,1,2.44,1.49l2.41,1.62c.84.54,1.48,1.06,2.19,1.59s1.44,1.08,2.15,1.63c1.32,1,2.61,2,4,3,10.57,7.64,22,12.73,32.94,14.48a41.18,41.18,0,0,0,15.63-.35,22.47,22.47,0,0,0,6.52-2.6,16,16,0,0,0,2.59-2c.33-.38.77-.77,1-1.11.14-.19.28-.33.43-.54l.49-.79.12-.19c.09-.17,0,0,0-.09l.19-.37.38-.76a14.62,14.62,0,0,0,.69-1.51l.61-1.53c.19-.51.31-1,.47-1.55a24.38,24.38,0,0,0,.72-3.1,12,12,0,0,0,.21-1.58l.13-1a41.22,41.22,0,0,0-1-12.16c-.16-.92-.42-1.79-.65-2.66s-.43-1.73-.71-2.54c-.55-1.65-1-3.25-1.6-4.73-1.08-3-2.25-5.66-3.31-8.05s-2.07-4.46-3-6.23-1.64-3.29-2.29-4.48l-1.93-3.62,2.24,3.44c.75,1.13,1.63,2.56,2.67,4.27.52.86,1.11,1.77,1.68,2.78l1.82,3.24c1.25,2.32,2.63,4.92,4,7.88.72,1.46,1.32,3.06,2,4.71.36.81.61,1.69.93,2.57s.65,1.77.89,2.71a43.9,43.9,0,0,1,2.07,13l-.06,1.21A16.21,16.21,0,0,1,685,220a28.61,28.61,0,0,1-.57,3.6c-.15.6-.25,1.22-.43,1.82l-.57,1.82a17.09,17.09,0,0,1-.69,1.8l-.37.9-.18.45s-.18.36-.16.32L682,231l-.43.81c-.18.3-.42.65-.63,1l-.33.49-.35.43-.7.84a20.89,20.89,0,0,1-3.28,2.88,27.2,27.2,0,0,1-7.88,3.79,47.44,47.44,0,0,1-18,1.58c-12.47-1.14-25.25-6.13-37.2-13.73-1.51-.93-3-2-4.46-3-1.25-.82-2.89-2-4.22-2.77l-2-1.22c-.69-.41-1.45-.78-2.18-1.17l-1.1-.59c-.38-.19-.76-.36-1.14-.53-.75-.36-1.52-.71-2.28-1.06a75.6,75.6,0,0,0-9.64-3.34,72.51,72.51,0,0,0-10.25-1.82,61.94,61.94,0,0,0-21.24,1.61,58.19,58.19,0,0,0-19.91,9.36,64.92,64.92,0,0,0-15.77,16.72c-.53.84-1.1,1.64-1.6,2.5l-1.5,2.6c-.51.86-.92,1.79-1.39,2.68l-.69,1.36s-.23.48,0,.08l-.17.38-.56,1.3-1.88,5v0l-.22.62-.16.69-.34,1.37c-.1.46-.25.91-.33,1.37l-.21,1.38a36.55,36.55,0,0,0,0,11.15A53,53,0,0,0,513,285.26c3.08,7.87,7.79,16,12,25.2a102.5,102.5,0,0,1,5.6,14.85,65.92,65.92,0,0,1,.75,33.84l-.51,2.09-.26,1.05-.32,1c-.44,1.35-.87,2.71-1.31,4.06,0,.13-.28.78-.26.71l-.17.44-.33.88-.68,1.76c-.39,1.09-1.06,2.52-1.66,3.87l-.92,2c-.32.66-.66,1.28-1,1.92-.69,1.27-1.31,2.56-2.1,3.8A69.79,69.79,0,0,1,517,390.1a67.52,67.52,0,0,1-12.82,12.57,110.08,110.08,0,0,1-14.45,9c-4.75,2.57-9.26,4.85-13.35,7.31a72.8,72.8,0,0,0-11.2,8,60.8,60.8,0,0,0-9,10A82.62,82.62,0,0,0,449,449.18l-1.53,3.29-1.4,3.46-.38.93c-.12.32-.26.63-.33.89l-.55,1.62L444.3,461c-.19.54-.38,1.06-.54,1.67l-1,3.51c-.18.58-.33,1.18-.46,1.77l-.41,1.79c-.62,2.37-1,4.82-1.45,7.24A119.57,119.57,0,0,0,439,491.78a128.18,128.18,0,0,0,2.43,30,132.71,132.71,0,0,0,9.31,29,138.13,138.13,0,0,0,15.57,26.42,155.93,155.93,0,0,0,46.39,40.89l3.38,2,3.48,1.85,3.48,1.85.43.23c.43.21-.09,0,.14.08l.95.44,1.9.88,3.79,1.77,1,.45.47.21.43.17,1.72.66,3.42,1.35c.57.22,1.12.47,1.72.67l1.82.59a114.26,114.26,0,0,0,29.64,6c1.25.07,2.51.17,3.76.23h3.76c2.5.07,5-.15,7.5-.29.62,0,1.25-.07,1.87-.12l1.86-.23,3.73-.44c1.24-.14,2.46-.43,3.7-.63s2.47-.41,3.69-.69A119.7,119.7,0,0,0,628.55,625a133.39,133.39,0,0,0,25-16.77,127.87,127.87,0,0,0,20.34-21.77,94.63,94.63,0,0,0,7.67-12.26c.59-1,1-2.1,1.55-3.15l.74-1.58.63-1.59.64-1.58.16-.4c-.06.19.08-.22.1-.3l.33-.94.65-1.89.32-.94L687,561l1-3.4,1-3.56c.58-2.39,1.2-4.77,1.68-7.19a135.59,135.59,0,0,0,2.26-14.5c.3-2.43.4-4.85.58-7.27s.21-4.83.15-7.24a121,121,0,0,0-.87-14.29,108.27,108.27,0,0,0-6.77-27c-.43-1.06-.82-2.15-1.29-3.19l-1.45-3.1-.72-1.55-.81-1.5c-.53-1-1.07-2-1.61-3s-1.18-1.93-1.76-2.9-1.14-2-1.81-2.87l-1.94-2.77-1-1.38-1-1.32a106.65,106.65,0,0,0-19-18.86A133.5,133.5,0,0,0,631,420l-6-2.82c.87.33,0,0,.09,0l-.41-.14-.81-.3-1.63-.59-1.62-.59-.81-.29c-.27-.1-.49-.15-.74-.23l-2.88-.84-1.44-.43c-.49-.13-1-.24-1.51-.36l-3-.71-.76-.18-.76-.13"/><path class="cls-3" d="M208,763.68a46.36,46.36,0,0,1-36.24-18,43.69,43.69,0,0,1-7.84-38.33c7-27.64,25.87-56.65,38.34-75.84,8.94-13.77,11.86-18.45,11.09-21.16a9.73,9.73,0,0,0-9.9-8.27c-6.33,0-12.64,4.7-15.36,11.45-.5,1.25-1.19,3.48-2.14,6.56-7.19,23.34-29.07,94.38-81,94.39h0a67.47,67.47,0,0,1-20.15-3.29c-19-6-30.86-16-35.15-29.68C40.16,651.2,70.14,612,70.44,611.63l1.76-2.28-2.74-.86c-.13,0-13.41-4.36-19.65-17.5-4.88-10.27-4.31-23.15,1.69-38.29,8.76-21.7,32.65-25,46.11-25,29,0,62.26,14.32,80.83,34.82l.12.13.14.11c3.4,2.63,6.44,4,9,4a6.11,6.11,0,0,0,6.07-4.93c1.71-6.53-3.09-19.61-16.54-27.29-6.14-5.61-19.31-8.9-34.54-12.7-33.6-8.39-75.43-18.84-65.47-59.44s57.64-46.57,85.19-46.57a179.72,179.72,0,0,1,24.52,1.57l1.17.18.73-.94c.24-.32,24.62-31.68,59.2-31.68,14.44,0,28.79,5.44,42.66,16.16,30.14,31.84,1.05,68.69-20.19,95.6-8.8,11.14-15.75,19.94-17.11,26.53-1.68,8.14.41,12.86,2.46,15.38a12.56,12.56,0,0,0,10,4.49c6.79,0,13.42-4.36,16.5-10.85a89.54,89.54,0,0,0,3.56-10.65c7.48-25.17,23-77.54,80.05-79.32l1.7,0A47.31,47.31,0,0,1,392.48,449c8.85,5.43,14.32,13,16.26,22.38,5.3,25.72-16.9,57.58-17.12,57.9L390,531.59l2.79.74c.31.08,31.37,8.48,42.32,33.33,6.8,15.43,4.57,34.05-6.62,55.33-10.34,17.7-23.29,26.35-39.55,26.35-22.63,0-47.34-16.87-67.19-30.42-10.23-7-19.06-13-26-15.66C290,599.08,285.07,598,281,598c-9.68,0-11.31,6-11.58,7.9-.77,5.3,3.09,11,8.61,12.59.68.2,67.81,21.12,83.29,59.71,5.21,13,3.83,26.63-4.12,40.55C345.39,739.41,329.51,749.9,310,749.9h0c-25.18,0-47.83-17.73-48.06-17.91l-1.56-1.24-1.24,1.56a127.65,127.65,0,0,1-26.82,24,44.64,44.64,0,0,1-24.36,7.4Z"/><path class="cls-4" d="M248,387c13.94,0,27.84,5.27,41.31,15.65,12.62,13.39,15.48,28.8,8.76,47.11-6.05,16.47-18.87,32.71-29.17,45.76-9,11.35-16,20.31-17.5,27.36-1.84,8.91.55,14.19,2.87,17a14.55,14.55,0,0,0,11.55,5.23c7.55,0,14.91-4.82,18.31-12a87.87,87.87,0,0,0,3.66-10.93c7.35-24.72,22.63-76.16,78.2-77.89l1.63,0a45.42,45.42,0,0,1,23.78,6.37c8.47,5.2,13.49,12.09,15.34,21.07,5.13,24.83-16.58,56-16.8,56.35l-3.31,4.71,5.56,1.47c.31.08,30.47,8.28,41,32.23,6.52,14.82,4.32,32.82-6.53,53.49-10,17.06-22.36,25.36-37.82,25.36-22,0-46.44-16.67-66.06-30.07-10.33-7-19.26-13.14-26.4-15.88C290.51,597.12,285.32,596,281,596c-9,0-12.88,5-13.56,9.61-.91,6.24,3.59,12.88,10,14.79a219.79,219.79,0,0,1,39,17.09c22.3,12.55,37.18,26.89,43,41.46,5,12.39,3.62,25.45-4,38.8C344,737.75,328.74,747.9,310,747.9c-24.46,0-46.6-17.3-46.82-17.47L260.06,728l-2.49,3.11a125.29,125.29,0,0,1-26.34,23.55A42.1,42.1,0,0,1,208,761.68a44.34,44.34,0,0,1-34.66-17.21,41.67,41.67,0,0,1-7.48-36.6c7-27.33,25.68-56.17,38.07-75.25,9.65-14.84,12.35-19.23,11.36-22.74-1.26-6-5.78-9.78-11.84-9.79-7.12,0-14.2,5.23-17.21,12.71-.54,1.33-1.24,3.59-2.2,6.72-7.09,23-28.64,93-79,93a65.4,65.4,0,0,1-19.55-3.2C67,703.52,55.66,694,51.57,681c-9.19-29.29,20.16-67.71,20.45-68.1l3.53-4.55-5.5-1.72c-.12,0-12.51-4-18.41-16.4-4.66-9.76-4.08-22.12,1.71-36.72,8.32-20.63,31.3-23.71,44.26-23.71,28.5,0,61.13,14,79.35,34.16l.24.26.28.22c3.76,2.91,7.2,4.38,10.23,4.38a8.11,8.11,0,0,0,8-6.43c2.65-10.12-6.74-23.27-17.29-29.41-6.58-5.87-19.89-9.19-35.24-13-16.69-4.17-35.61-8.9-48.85-17.61-14.59-9.61-19.41-22.13-15.17-39.42,4.16-16.95,15.54-29.33,33.83-36.79,16.69-6.82,36.09-8.25,49.42-8.25a177.53,177.53,0,0,1,24.22,1.55l2.35.36,1.44-1.89c.23-.31,23.95-30.89,57.61-30.89m0-4c-36,0-60.79,32.46-60.79,32.46a181.13,181.13,0,0,0-24.83-1.59c-29.79,0-77,6.76-87.13,48.09-15.07,61.41,82.28,56.8,100.76,74.25,16.72,9.42,20,28.59,11.66,28.59-2,0-4.57-1.06-7.79-3.55-19.67-21.71-53.58-35.47-82.31-35.47-21.77,0-40.58,7.9-48,26.21C31.15,598.62,68.86,610.4,68.86,610.4s-61,78.7,15.34,102.71A68.86,68.86,0,0,0,105,716.5c60.18,0,80.78-91.84,85-102.21,2.62-6.51,8.51-10.2,13.5-10.2,3.79,0,7.06,2.14,8,6.78,1.87,5.24-38.37,52.55-49.43,96-8.11,31.89,17.48,58.8,46,58.8A46.31,46.31,0,0,0,233.41,758a128.48,128.48,0,0,0,27.29-24.4S283.8,751.9,310,751.9c16.78,0,34.85-7.52,48.93-32.19,36.08-63.2-69.31-99.89-80.34-103.17C269.82,613.93,267.18,600,281,600c3.54,0,8.15.91,14,3.16,20.07,7.69,59,46.21,93.89,46.21,15.15,0,29.54-7.26,41.32-27.41,37.87-72-37-91.54-37-91.54s41-58.15.28-83.14a49.4,49.4,0,0,0-25.87-7l-1.76,0c-69.31,2.16-79,77.7-85.35,91.11a16.71,16.71,0,0,1-14.69,9.71c-7,0-13-5.43-10.5-17.46,4.47-21.62,80.66-77.81,36.69-124C276.29,387.43,261.4,383,248,383Z"/><path class="cls-3" d="M200.6,407.35s-28.63,17-16.78,71.55"/><path class="cls-4" d="M200.6,407.35a40.37,40.37,0,0,0-6.33,7.21c-.44.66-.93,1.28-1.34,1.95l-1.21,2-.61,1-.53,1.06-1.06,2.1a69.15,69.15,0,0,0-5.43,18c-.23,1.56-.54,3.11-.71,4.67l-.39,4.73c-.06.79-.18,1.57-.19,2.37l0,2.38c0,1.58,0,3.18-.09,4.77l.38,9.61c.3,3.2.61,6.41.75,9.69-1-3.09-1.84-6.25-2.69-9.42-.58-3.2-1.16-6.44-1.56-9.7-.12-1.64-.22-3.28-.29-4.93l-.13-2.47c0-.82,0-1.65.06-2.48l.24-5c.16-1.65.47-3.29.7-4.93a54.88,54.88,0,0,1,6.63-18.75,42.7,42.7,0,0,1,6-7.95A29,29,0,0,1,200.6,407.35Z"/><path class="cls-4" d="M66.2,605.34a33,33,0,0,0,7,2.08c.59.09,1.17.24,1.76.32l1.78.2c1.18.19,2.38.14,3.56.23a54.55,54.55,0,0,0,14-1.59c1.15-.29,2.32-.53,3.46-.87l3.41-1.1c.56-.19,1.15-.33,1.7-.55l1.68-.67c1.11-.45,2.24-.88,3.37-1.3l6.67-3c2.19-1.09,4.38-2.21,6.7-3.19-1.81,1.71-3.74,3.28-5.68,4.88-2.06,1.4-4.14,2.82-6.3,4.1-1.12.58-2.24,1.16-3.37,1.72l-1.7.84c-.57.27-1.17.46-1.76.7L99,609.49c-1.21.38-2.46.66-3.69,1A41,41,0,0,1,80,611.3a32.19,32.19,0,0,1-7.39-2A21.52,21.52,0,0,1,66.2,605.34Z"/><path class="cls-4" d="M333,561a40.23,40.23,0,0,0,9.58-.58c.78-.15,1.56-.24,2.33-.41l2.3-.58,1.14-.28,1.13-.37,2.24-.72a68.84,68.84,0,0,0,16.59-8.77c1.27-.93,2.58-1.8,3.82-2.78l3.63-3c.61-.52,1.25-1,1.82-1.53l1.71-1.66c1.13-1.12,2.29-2.21,3.46-3.29l6.56-7c2.06-2.46,4.13-4.94,6.36-7.35-1.49,2.89-3.14,5.71-4.8,8.54-1.87,2.67-3.77,5.35-5.8,7.93-1.08,1.23-2.18,2.47-3.3,3.67l-1.67,1.83c-.56.6-1.2,1.13-1.8,1.7l-3.7,3.32c-1.28,1-2.66,2-4,3a54.83,54.83,0,0,1-18,8.47,42.8,42.8,0,0,1-9.87,1.33A29,29,0,0,1,333,561Z"/><path class="cls-4" d="M232.22,670a40.42,40.42,0,0,0,.11,9.59c.11.79.16,1.58.3,2.36l.46,2.32.23,1.16.31,1.14.61,2.28a69.18,69.18,0,0,0,7.95,17c.87,1.31,1.67,2.66,2.59,3.94l2.86,3.78c.49.63.92,1.29,1.44,1.89l1.58,1.79q1.58,1.77,3.11,3.62l6.7,6.89c2.36,2.18,4.74,4.37,7,6.72-2.82-1.63-5.54-3.42-8.29-5.21-2.57-2-5.16-4-7.64-6.19-1.18-1.14-2.36-2.3-3.51-3.47l-1.74-1.76c-.57-.59-1.07-1.26-1.61-1.88l-3.13-3.86c-1-1.33-1.85-2.76-2.78-4.14a55,55,0,0,1-7.58-18.38,42.47,42.47,0,0,1-.84-9.92A29.06,29.06,0,0,1,232.22,670Z"/><path class="cls-5" d="M102.63,466.86c8.88,6.47,44.91-31.21,28.72-33.6C121.23,431.77,89.22,457.09,102.63,466.86Z"/><path class="cls-5" d="M99.4,478.71c-5.23-1.1-3.81,15.68,4.3,16.39S106.05,480.35,99.4,478.71Z"/><path class="cls-5" d="M338.39,708.58c-6.16-9.1-52.85,14.08-38.44,21.83C309,735.25,347.67,722.33,338.39,708.58Z"/><path class="cls-5" d="M345.45,698.53c4.55,2.82,8.92-13.44,1.53-16.87S339.75,694.73,345.45,698.53Z"/><path class="cls-5" d="M341.63,465.94c.65,9.93,47.12-4.67,45.35-10.29C384.43,447.52,340.32,445.58,341.63,465.94Z"/><path class="cls-5" d="M114.21,695.74c3.48-9.31-44.89-15.06-45.58-9.21C67.62,695,107.05,714.86,114.21,695.74Z"/><path class="cls-1" d="M637.68,599.86q-23,15.25-58,15.25-24.63,0-42.68-6.93a84.45,84.45,0,0,1-30.37-19.4A79.81,79.81,0,0,1,488.21,559a126.66,126.66,0,0,1-6.95-37.76,95.41,95.41,0,0,1,7.15-37.42,87.87,87.87,0,0,1,20-29.45A91.51,91.51,0,0,1,539,435,105.12,105.12,0,0,1,577.73,428q27.4,0,45.46,9.87a85.35,85.35,0,0,1,29,25.12,92.51,92.51,0,0,1,15.09,33.26,125,125,0,0,1,3.37,34.3H517a62.52,62.52,0,0,0,3.18,22.35,48.84,48.84,0,0,0,11.51,18.71,56.83,56.83,0,0,0,20.25,13q12.3,4.86,29,4.85,21.44,0,35.14-8.66t18.06-26.33h33.35Q660.7,584.62,637.68,599.86Zm-8.14-115a50.47,50.47,0,0,0-12.3-16.11A59.88,59.88,0,0,0,599,458a65.19,65.19,0,0,0-23.22-4,66.37,66.37,0,0,0-23.62,4,55.35,55.35,0,0,0-18.07,10.91A52.25,52.25,0,0,0,522.15,485,55,55,0,0,0,517,504.59H634.9A54.12,54.12,0,0,0,629.54,484.84Z"/><path class="cls-6" d="M881.82,429.91Q866,418.42,841.3,418.41a97.17,97.17,0,0,0-19.67,2,52.37,52.37,0,0,0-17.17,6.67,35.09,35.09,0,0,0-12,12.5q-4.5,7.85-4.5,19.51,0,11,6.5,17.84T811.8,488.1a144.81,144.81,0,0,0,24.5,7.16q13.68,2.85,27.84,6.17T892,509.27a91.83,91.83,0,0,1,24.5,12.17,58,58,0,0,1,17.34,19.34q6.49,11.67,6.5,29.34,0,19-8.5,32.51a70,70,0,0,1-21.84,22A95.1,95.1,0,0,1,880.15,637a145,145,0,0,1-32.84,3.83,139.38,139.38,0,0,1-37.85-5,93.36,93.36,0,0,1-31.34-15.17,71.91,71.91,0,0,1-21.34-26q-7.83-15.82-7.83-37.51h30q0,15,5.83,25.84a53,53,0,0,0,15.34,17.84,64.54,64.54,0,0,0,22.17,10.34,101.88,101.88,0,0,0,26,3.33,117.62,117.62,0,0,0,21.5-2,63.41,63.41,0,0,0,19.51-6.83,38.86,38.86,0,0,0,14-13.17q5.32-8.34,5.34-21.34,0-12.33-6.51-20a47.73,47.73,0,0,0-17.33-12.5,127.35,127.35,0,0,0-24.51-7.84q-13.68-3-27.84-6.16t-27.84-7.34a100.53,100.53,0,0,1-24.51-11,52.75,52.75,0,0,1-17.33-17.67q-6.51-10.83-6.51-27.18,0-18,7.34-31.17a64.06,64.06,0,0,1,19.5-21.67,87.5,87.5,0,0,1,27.68-12.67,122,122,0,0,1,31.84-4.17,127.65,127.65,0,0,1,34,4.33,77.1,77.1,0,0,1,27.5,13.67,66,66,0,0,1,18.68,23.51q6.82,14.17,7.5,33.84h-30Q897.65,441.43,881.82,429.91Z"/><path class="cls-6" d="M970,513.94a80.43,80.43,0,0,1,16-28.68,75.4,75.4,0,0,1,26.34-19.17q15.66-7,36-7,20.67,0,36.17,7a75.89,75.89,0,0,1,26.18,19.17,80.57,80.57,0,0,1,16,28.68,115,115,0,0,1,5.34,35.51,113.4,113.4,0,0,1-5.34,35.34,80.72,80.72,0,0,1-16,28.5,73.87,73.87,0,0,1-26.18,19q-15.49,6.83-36.17,6.84-20.34,0-36-6.84a73.42,73.42,0,0,1-26.34-19,80.59,80.59,0,0,1-16-28.5,113.4,113.4,0,0,1-5.33-35.34A115,115,0,0,1,970,513.94Zm28.84,63.35a58.22,58.22,0,0,0,11.51,20.33,49.76,49.76,0,0,0,17.17,12.51,52.32,52.32,0,0,0,41.68,0,50,50,0,0,0,17.17-12.51,58.36,58.36,0,0,0,11.5-20.33,95.05,95.05,0,0,0,0-55.69,60.3,60.3,0,0,0-11.5-20.5,49.14,49.14,0,0,0-17.17-12.67,52.21,52.21,0,0,0-41.68,0,49,49,0,0,0-17.17,12.67,60.15,60.15,0,0,0-11.51,20.5,95.27,95.27,0,0,0,0,55.69Z"/><path class="cls-6" d="M1268.41,493.1q-10.68-9-28.67-9-15.35,0-25.68,5.67a45.8,45.8,0,0,0-16.5,15,63,63,0,0,0-8.84,21.5,117.24,117.24,0,0,0-2.66,25.18,95.72,95.72,0,0,0,2.83,23.33,62.4,62.4,0,0,0,8.84,20.18,44.76,44.76,0,0,0,15.67,14.17q9.66,5.34,23,5.33,21,0,32.84-11t14.51-31h29q-4.68,32-23.84,49.35t-52.18,17.34q-19.68,0-34.85-6.34a67.55,67.55,0,0,1-25.34-18A77.73,77.73,0,0,1,1161.22,587a115.91,115.91,0,0,1-5.17-35.5,126.7,126.7,0,0,1,5-36.18,83.58,83.58,0,0,1,15.17-29.34,71.13,71.13,0,0,1,25.51-19.67q15.33-7.17,35.67-7.17a104.38,104.38,0,0,1,27.51,3.5,67,67,0,0,1,22.67,10.84,59.14,59.14,0,0,1,16.17,18.5q6.33,11.18,8,26.51h-29.35Q1279.08,502.11,1268.41,493.1Z"/><path class="cls-6" d="M1346.09,432.08V397.41h28.34v34.67Zm28.34,31V635.47h-28.34V463.09Z"/><path class="cls-6" d="M1540.47,624.46q-19.34,14.68-48.68,14.68-20.67,0-35.84-6.67a70.68,70.68,0,0,1-25.51-18.67,79.28,79.28,0,0,1-15.5-28.68,138.12,138.12,0,0,1-5.84-36.34,103.77,103.77,0,0,1,6-36,86.09,86.09,0,0,1,16.83-28.34,76.39,76.39,0,0,1,25.68-18.67,78.29,78.29,0,0,1,32.51-6.67q23,0,38.17,9.5a75.65,75.65,0,0,1,24.34,24.17,95.69,95.69,0,0,1,12.67,32,137.23,137.23,0,0,1,2.84,33h-129a68.52,68.52,0,0,0,2.67,21.51,48.59,48.59,0,0,0,9.67,18,47.54,47.54,0,0,0,17,12.5q10.33,4.68,24.34,4.67,18,0,29.51-8.33t15.17-25.34h28Q1559.81,609.79,1540.47,624.46Zm-6.83-110.69a48.51,48.51,0,0,0-10.34-15.5,51,51,0,0,0-54.68-10.34,45.91,45.91,0,0,0-15.17,10.5,50.11,50.11,0,0,0-10,15.51,59.05,59.05,0,0,0-4.34,18.83h99A58.29,58.29,0,0,0,1533.64,513.77Z"/><path class="cls-6" d="M1671.17,463.09v25h-34.34v107a30.79,30.79,0,0,0,.83,8,8.17,8.17,0,0,0,3.17,4.66,13.82,13.82,0,0,0,6.5,2.17,95.36,95.36,0,0,0,10.84.5h13v25H1649.5a101.75,101.75,0,0,1-18.84-1.5,27.7,27.7,0,0,1-12.67-5.5,23.44,23.44,0,0,1-7.17-11.34q-2.34-7.33-2.33-19.34V488.1h-29.35v-25h29.35V411.41h28.34v51.68Z"/><path class="cls-6" d="M1770.19,658.47a181.48,181.48,0,0,1-9.84,21.34A58.1,58.1,0,0,1,1749.68,694a36.22,36.22,0,0,1-13,8,50.2,50.2,0,0,1-16.5,2.5,76.5,76.5,0,0,1-10-.67,48.38,48.38,0,0,1-9.67-2.33v-26a47.91,47.91,0,0,0,8.51,2.83,35.71,35.71,0,0,0,8.17,1.17q8.65,0,14.5-4.17a25.47,25.47,0,0,0,8.83-11.84l11.67-29-68.35-171.38h32l50.35,141h.66l48.35-141h30Z"/></svg>